<svg width="35" height="50" viewBox="0 0 35 50" fill="none" xmlns="http://www.w3.org/2000/svg">
<path d="M35 40.3501L19.0312 49.5567C17.9375 50.1478 16.8437 50.1478 15.75 49.5567L0 40.3501L28.5469 10.4569L29.3125 10.2296C29.9687 10.2296 30.3406 10.5251 30.4062 11.1389L35 40.3501ZM11.7031 10.9116L1.75 28.0746L5.90625 0.909298C5.97187 0.295522 6.34375 0 7 0C7.4375 0 7.72187 0.136395 7.875 0.568311L12.5781 9.54762L11.7031 10.9116ZM21.5469 13.7759L0.65625 35.5763L16.5156 7.61537C16.7344 7.16072 17.0625 6.95613 17.5 6.95613C17.9375 6.95613 18.2219 7.16072 18.375 7.61537L21.5469 13.7759Z" fill="black"/>
</svg>
