<svg width="40" height="50" viewBox="0 0 40 50" fill="none" xmlns="http://www.w3.org/2000/svg">
<path d="M27.5869 2.82289C23.4208 1.7793 19.0878 1.7793 14.9216 2.82289C12.5153 1.23381 10.6783 0.503491 9.3422 0.195215C8.7718 0.0576489 8.18843 -0.00762988 7.60395 0.000708604C7.33805 0.00933196 7.0734 0.0437237 6.81322 0.103467L6.77914 0.110807L6.76551 0.118147H6.75528L7.22222 1.88339L6.75528 0.121817C6.51584 0.194677 6.29411 0.323115 6.10569 0.498104C5.91727 0.673093 5.76672 0.890388 5.66462 1.13472C4.65908 3.55948 4.46751 6.28518 5.1227 8.84527C3.42481 11.0589 2.49995 13.8426 2.50852 16.7136C2.50852 22.413 4.06953 26.2445 6.73142 28.707C8.59577 30.4319 10.8589 31.3494 13.1288 31.8742C12.7676 33.0028 12.6329 34.2011 12.7335 35.39V37.5846C11.3463 37.8965 10.3851 37.7974 9.70007 37.5552C8.84458 37.2506 8.18678 36.6377 7.55624 35.757C7.22754 35.2815 6.92043 34.7891 6.63599 34.2816L6.44172 33.9403C6.19663 33.501 5.94207 33.0678 5.67826 32.6412C5.03068 31.6099 4.06953 30.3181 2.51534 29.8777L0.865712 29.4116L0 32.9641L1.64963 33.4302C1.92229 33.5036 2.27675 33.7789 2.85958 34.7C3.08415 35.0635 3.30008 35.433 3.50716 35.8083L3.73892 36.212C4.0593 36.7699 4.4274 37.3864 4.85344 37.9883C5.71575 39.1994 6.89162 40.4215 8.63667 41.0417C9.82958 41.4674 11.1861 41.5701 12.7335 41.3132V48.165C12.7335 48.6517 12.913 49.1184 13.2326 49.4626C13.5522 49.8067 13.9857 50 14.4376 50H28.0709C28.5229 50 28.9563 49.8067 29.2759 49.4626C29.5955 49.1184 29.7751 48.6517 29.7751 48.165V35.0927C29.7751 33.933 29.7273 32.8724 29.424 31.8852C31.6837 31.3714 33.9298 30.4539 35.7839 28.729C38.4424 26.2481 40 22.38 40 16.6476V16.6439C39.9925 13.7964 39.0674 11.04 37.3824 8.84527C38.0368 6.28632 37.8452 3.56207 36.8405 1.13839C36.7392 0.893768 36.5893 0.676 36.4015 0.50038C36.2136 0.32476 35.9924 0.195548 35.7532 0.121817L35.2863 1.88339C35.7532 0.121817 35.7498 0.121817 35.7464 0.121817L35.7396 0.118147L35.726 0.110807L35.6953 0.103467L35.4397 0.0484179C35.2616 0.0171947 35.0816 0.00124148 34.9012 0.000708604C34.3167 -0.00762988 33.7333 0.0576489 33.1629 0.195215C31.8303 0.503491 29.9932 1.23381 27.5869 2.82289Z" fill="black"/>
</svg>
