<svg width="50" height="50" viewBox="0 0 50 50" fill="none" xmlns="http://www.w3.org/2000/svg">
<path d="M44.7853 9.71974C36.3502 -1.20545 20.6499 -3.22548 9.71973 5.21466C-1.20545 13.6498 -3.22548 29.3501 5.21466 40.2803C13.6523 51.2054 29.3525 53.2255 40.2802 44.7853L40.2852 44.7803C51.2079 36.3402 53.2229 20.6449 44.7853 9.71974ZM38.3877 15.9573L36.4377 14.0373L36.0152 13.6173L36.1326 13.4998L39.0927 10.7048C39.6227 11.3473 39.9127 12.1548 39.9127 12.9923C39.9102 13.9673 39.5202 14.9048 38.8277 15.5948C38.6894 15.7282 38.5427 15.849 38.3877 15.9573ZM11.7448 36.8452L12.0923 37.1702L13.9048 38.9827L9.86973 38.7202L11.7448 36.8452ZM36.2252 9.32473C37.0377 9.32973 37.8277 9.59974 38.4752 10.0947L35.2251 13.3648C35.1769 13.4036 35.1398 13.4545 35.1176 13.5123L35.1151 13.5248L35.1101 13.5398C35.0919 13.6023 35.0929 13.6689 35.113 13.7309C35.133 13.7928 35.1712 13.8473 35.2226 13.8873L37.6827 16.3449C37.0099 16.6374 36.2645 16.7204 35.5439 16.583C34.8232 16.4457 34.1606 16.0943 33.6426 15.5748C33.1342 15.0615 32.7883 14.4098 32.6482 13.701C32.5082 12.9922 32.5801 12.2579 32.8551 11.5898C33.1294 10.9209 33.5961 10.3486 34.1961 9.94538C34.7961 9.54213 35.5023 9.32612 36.2252 9.32473ZM33.9526 17.4899C33.9481 17.6488 33.9106 17.8051 33.8426 17.9488C33.7746 18.0925 33.6776 18.2206 33.5576 18.3249L23.82 26.7975L23.7875 26.825L23.4324 26.47L23.2774 26.315L23.2024 26.24L22.9849 26.0225L22.9024 25.94L22.7349 25.7725L31.9526 16.6374C32.1405 16.4455 32.3896 16.3255 32.6567 16.2981C32.9239 16.2707 33.1922 16.3377 33.4151 16.4874C33.4814 16.5314 33.5434 16.5816 33.6001 16.6374L33.6926 16.7324C33.7726 16.8524 33.8418 16.9774 33.9001 17.1074C33.9385 17.2324 33.956 17.3599 33.9526 17.4899ZM22.7074 26.84L22.7249 26.8875L22.8099 26.97L23.1749 27.3275L23.0399 27.345L21.0174 27.5925L21.2674 27.3425L22.2449 26.3675L22.7074 26.84ZM32.5326 15.5923C32.1157 15.6473 31.7288 15.839 31.4326 16.1373L22.2449 25.2825L20.4449 23.4825C25.2075 18.7374 28.12 16.2624 29.9326 15.4498C30.3272 15.2011 30.7895 15.0812 31.2553 15.1068C31.7211 15.1323 32.1675 15.302 32.5326 15.5923ZM19.9124 24.0125L19.9499 24.05L21.4374 25.5375L17.5574 26.3675L19.9124 24.0125ZM14.8298 36.1577C14.7083 36.2147 14.6106 36.3123 14.5535 36.4338C14.4964 36.5552 14.4836 36.6928 14.5173 36.8227L14.9323 38.6352C14.948 38.6566 14.9564 38.6825 14.9564 38.709C14.9564 38.7355 14.948 38.7613 14.9323 38.7827C14.9095 38.8028 14.8802 38.8138 14.8498 38.8138C14.8194 38.8138 14.7901 38.8028 14.7673 38.7827L12.3073 36.3027L19.8824 28.6151L23.805 28.0076L25.245 29.4476C22.0574 32.0972 18.5601 34.3504 14.8298 36.1577ZM25.9325 28.9076L24.4125 27.3875L33.9851 18.9924C33.3051 21.6924 29.695 25.3525 25.9325 28.9076ZM39.1202 12.5323C39.0809 12.4662 39.0187 12.4169 38.9453 12.3939C38.872 12.3708 38.7927 12.3756 38.7227 12.4073C38.6885 12.425 38.6581 12.4492 38.6334 12.4787C38.6086 12.5081 38.5898 12.5421 38.5782 12.5788C38.5666 12.6155 38.5623 12.6542 38.5657 12.6925C38.569 12.7309 38.5799 12.7682 38.5977 12.8023C38.6695 12.9531 38.6979 13.1208 38.6798 13.2868C38.6617 13.4529 38.5978 13.6106 38.4952 13.7423C38.4686 13.7675 38.4478 13.7983 38.4345 13.8324C38.4211 13.8666 38.4153 13.9032 38.4177 13.9398C38.4177 14.0165 38.4427 14.0823 38.4927 14.1373C38.5469 14.1566 38.606 14.1566 38.6602 14.1373C38.7088 14.1497 38.7599 14.1486 38.808 14.1341C38.856 14.1195 38.8991 14.0921 38.9327 14.0548C39.1059 13.8453 39.2156 13.5907 39.2488 13.3209C39.282 13.0512 39.2374 12.7775 39.1202 12.5323Z" fill="black"/>
</svg>
