<svg width="50" height="50" viewBox="0 0 50 50" fill="none" xmlns="http://www.w3.org/2000/svg">
<path fill-rule="evenodd" clip-rule="evenodd" d="M9.09091 0C6.67985 0 4.36754 0.95779 2.66267 2.66267C0.95779 4.36754 0 6.67985 0 9.09091V40.9091C0 43.3201 0.95779 45.6325 2.66267 47.3373C4.36754 49.0422 6.67985 50 9.09091 50H40.9091C43.3201 50 45.6325 49.0422 47.3373 47.3373C49.0422 45.6325 50 43.3201 50 40.9091V9.09091C50 6.67985 49.0422 4.36754 47.3373 2.66267C45.6325 0.95779 43.3201 0 40.9091 0H9.09091ZM13.6364 12.5H11.3636V35.2273H15.9091V28.4091H19.3182C20.3628 28.4091 21.3972 28.2033 22.3623 27.8036C23.3273 27.4038 24.2042 26.8179 24.9429 26.0793C25.6815 25.3406 26.2675 24.4637 26.6672 23.4986C27.067 22.5335 27.2727 21.4992 27.2727 20.4545C27.2727 19.4099 27.067 18.3756 26.6672 17.4105C26.2675 16.4454 25.6815 15.5685 24.9429 14.8298C24.2042 14.0912 23.3273 13.5053 22.3623 13.1055C21.3972 12.7058 20.3628 12.5 19.3182 12.5H13.6364ZM19.3182 23.8636H15.9091V17.0455H19.3182C20.2223 17.0455 21.0894 17.4046 21.7288 18.044C22.3681 18.6833 22.7273 19.5504 22.7273 20.4545C22.7273 21.3587 22.3681 22.2258 21.7288 22.8651C21.0894 23.5045 20.2223 23.8636 19.3182 23.8636ZM30.6818 18.1818V35.2273H35.2273V25.5682C35.6487 24.8117 36.2477 24.169 36.9727 23.6955C37.8295 23.1455 39.0659 22.7273 40.9091 22.7273V18.1818C38.6909 18.1818 36.8023 18.6273 35.2273 19.4545V18.1818H30.6818Z" fill="black"/>
</svg>
