<svg width="85" height="50" viewBox="0 0 85 50" fill="none" xmlns="http://www.w3.org/2000/svg">
<path d="M42.5 0C31.1711 0 24.0789 5.5599 21.25 16.6667C25.5 11.1068 30.4539 9.02344 36.125 10.4167C39.3523 11.2109 41.6633 13.5156 44.2266 16.0547C48.3969 20.1953 53.218 25 63.75 25C75.0789 25 82.1711 19.4401 85 8.33333C80.75 13.8932 75.7961 15.9766 70.125 14.5833C66.8977 13.7891 64.5867 11.4844 62.0234 8.94531C57.8531 4.80469 53.032 0 42.5 0ZM21.25 25C9.92109 25 2.82891 30.5599 0 41.6667C4.25 36.1068 9.20391 34.0234 14.875 35.4167C18.1023 36.2109 20.4133 38.5156 22.9766 41.0547C27.1469 45.1953 31.968 50 42.5 50C53.8289 50 60.9211 44.4401 63.75 33.3333C59.5 38.8932 54.5461 40.9766 48.875 39.5833C45.6477 38.7891 43.3367 36.4844 40.7734 33.9453C36.6031 29.8047 31.782 25 21.25 25Z" fill="black"/>
</svg>
