<svg width="75" height="50" viewBox="0 0 75 50" fill="none" xmlns="http://www.w3.org/2000/svg">
<path d="M62.734 0.449191C65.2956 1.04785 67.6229 2.40527 69.419 4.3483C70.4066 5.40081 71.2667 6.56874 71.9811 7.82737C72.0142 7.96434 67.3681 11.1238 64.5504 12.8862C64.4481 12.9562 64.0422 12.5087 63.5821 11.8208C63.0682 10.9245 62.3378 10.175 61.4594 9.64257C60.581 9.11017 59.5833 8.81235 58.5601 8.77704C55.3213 8.55179 53.2344 10.2685 53.2494 13.1388C53.2214 13.844 53.3803 14.5439 53.7095 15.166C54.4222 16.6574 55.7454 17.5523 59.9013 19.3756C67.5516 22.7085 70.8354 24.9061 72.8622 28.0291C74.0075 30.0024 74.7129 32.2053 74.929 34.4834C75.1451 36.7616 74.8667 39.06 74.1132 41.2179C73.0782 43.585 71.4356 45.6282 69.3562 47.1351C67.2767 48.6419 64.8364 49.5574 62.289 49.7862C59.5814 50.0974 56.8462 50.0688 54.1455 49.701C50.0091 49.0132 46.1986 47.0037 43.2716 43.9664C42.1662 42.7054 41.2299 41.3023 40.4869 39.7934C40.8009 39.5611 41.1294 39.3496 41.4703 39.1603C41.9454 38.8863 43.7437 37.8393 45.4398 36.8439L48.5191 35.0177L49.1626 35.9673C50.2483 37.5347 51.6276 38.8709 53.2223 39.8999C54.8343 40.7948 56.6602 41.2189 58.4963 41.1249C60.3325 41.0308 62.1067 40.4223 63.6212 39.3673C64.4024 38.5966 64.8907 37.5722 65.0007 36.4737C65.1106 35.3751 64.8352 34.2724 64.2226 33.3588C63.3926 32.1565 61.6966 31.1459 56.8761 29.0305C53.0962 27.7404 49.6534 25.6021 46.805 22.7755C45.4496 21.2101 44.4479 19.3642 43.87 17.3666C43.4427 15.0905 43.3797 12.7597 43.6836 10.4633C44.2486 7.82041 45.6032 5.41741 47.5635 3.58026C49.5238 1.74311 51.9949 0.560734 54.6417 0.193513C57.3366 -0.13243 60.0645 -0.0462406 62.734 0.449191ZM37.6451 4.96315L37.6782 9.38884H23.755V49.4088H13.9365V9.39797H0.0132847V5.05142C-0.0236679 3.56291 0.0164828 2.07346 0.133572 0.589205C0.184694 0.519197 8.64991 0.485716 18.9134 0.503979L37.591 0.555724L37.6451 4.96315Z" fill="black"/>
</svg>
