<svg width="50" height="50" viewBox="0 0 50 50" fill="none" xmlns="http://www.w3.org/2000/svg">
<path fill-rule="evenodd" clip-rule="evenodd" d="M35.4559 49.7863C35.8538 49.9422 36.2793 50.0142 36.706 49.9977C37.1328 49.9812 37.5515 49.8767 37.9364 49.6905L48.2305 44.7113C48.7606 44.4548 49.2079 44.053 49.521 43.5522C49.834 43.0515 50 42.4721 50 41.8806V8.11897C50.0001 7.52749 49.8341 6.94798 49.5211 6.44714C49.208 5.9463 48.7607 5.54449 48.2305 5.28793L37.9364 0.309456C37.3547 0.0281208 36.7004 -0.064508 36.064 0.0443892C35.4277 0.153286 34.8407 0.458324 34.3844 0.917286L14.6774 18.9896L6.09387 12.4397C5.70661 12.1444 5.22873 11.9945 4.74307 12.0162C4.25742 12.0378 3.79462 12.2296 3.4349 12.5583L0.681779 15.0756C0.467228 15.2718 0.295769 15.5108 0.178372 15.7774C0.0609736 16.044 0.000221206 16.3322 6.0295e-07 16.6238C-0.00022 16.9153 0.0600961 17.2036 0.17709 17.4704C0.294085 17.7372 0.465181 17.9764 0.679435 18.1729L8.12355 24.9996L0.679826 31.8267C0.465689 32.0232 0.294695 32.2625 0.177773 32.5292C0.0608512 32.7959 0.000574321 33.0842 0.000794901 33.3757C0.00101548 33.6671 0.0617287 33.9553 0.179054 34.2219C0.296379 34.4884 0.467735 34.7274 0.682169 34.9236L3.43529 37.4409C3.79496 37.7696 4.25774 37.9615 4.74339 37.9832C5.22905 38.005 5.70695 37.8552 6.09426 37.5599L14.6778 31.0104L34.3848 49.0823C34.6898 49.3888 35.0542 49.6285 35.4559 49.7863ZM37.5075 13.5902L22.5548 24.9996L37.5078 36.4094L37.5075 13.5902Z" fill="black"/>
</svg>
