<svg width="40" height="50" viewBox="0 0 40 50" fill="none" xmlns="http://www.w3.org/2000/svg">
<path d="M21.8674 0.554824C21.3013 0.19155 20.6566 0 20 0C19.3434 0 18.6987 0.19155 18.1326 0.554824L1.81684 11.0287C1.26349 11.3838 0.804751 11.8906 0.486072 12.4988C0.167394 13.107 -0.000163971 13.7956 1.20407e-07 14.4962V35.5037C1.20407e-07 36.9284 0.690526 38.2475 1.81684 38.969L7.33895 42.5147C10.1453 44.3208 13.6842 42.1102 13.6842 38.5577V15.227H9.47368V38.5554L4.21053 35.1751V14.8249L20 4.68647L35.7895 14.8249V35.1751L20 45.3135L16.2779 42.9237L14.1432 46.883L18.1326 49.4452C18.6987 49.8084 19.3434 50 20 50C20.6566 50 21.3013 49.8084 21.8674 49.4452L38.1832 38.969C38.7362 38.6141 39.1947 38.1076 39.5134 37.4999C39.8321 36.8921 39.9998 36.204 40 35.5037V14.4962C39.9998 13.796 39.8321 13.1079 39.5134 12.5001C39.1947 11.8924 38.7362 11.3859 38.1832 11.031L21.8674 0.554824ZM24.2105 14.6594C21.3411 14.6594 19.3074 15.466 18 16.8884C17.0128 17.9601 16.4549 19.4152 16.4484 20.935C16.4484 22.2103 16.7789 23.3662 17.4632 24.3221C18.1221 25.2413 18.9895 25.8135 19.8211 26.1834C21.3368 26.8659 23.2316 27.0888 24.7558 27.2657L24.9389 27.2887C26.6884 27.4955 28 27.6725 28.8968 28.0815C29.3032 28.2653 29.4695 28.4354 29.5389 28.5342C29.5832 28.5985 29.6695 28.741 29.6695 29.1316C29.6695 29.7383 29.48 30.1289 28.8842 30.4989C28.1537 30.9516 26.8632 31.2963 24.92 31.2963C22.9937 31.2963 21.6505 30.9056 20.8821 30.3266C20.2863 29.8762 19.8463 29.1845 19.9621 27.684L15.7663 27.3002C15.5389 30.2622 16.5221 32.6222 18.4863 34.1066C20.2779 35.4624 22.6337 35.8921 24.92 35.8921C27.1874 35.8921 29.3242 35.5129 30.9684 34.4904C32.7495 33.3874 33.88 31.5444 33.88 29.1316C33.88 27.8517 33.5537 26.6936 32.8758 25.7307C32.2232 24.8024 31.3558 24.2233 30.5221 23.8419C28.9895 23.141 27.0695 22.9158 25.5368 22.7366L25.3895 22.7182C23.6358 22.5114 22.3242 22.339 21.4211 21.9346C21.0126 21.7508 20.8463 21.5853 20.7832 21.4934C20.7411 21.4382 20.6589 21.3096 20.6589 20.935C20.6589 20.7581 20.7074 20.4318 20.9747 20.1422C21.2316 19.8619 22.0253 19.2552 24.2105 19.2552C26.2947 19.2552 27.5095 19.4965 28.2042 19.9446C28.6568 20.2387 29.1474 20.7787 29.2147 22.5481L33.4211 22.3643C33.3158 19.5011 32.3558 17.2905 30.3516 15.9945C28.5895 14.8501 26.3368 14.6594 24.2105 14.6594Z" fill="black"/>
</svg>
