<svg width="70" height="50" viewBox="0 0 70 50" fill="none" xmlns="http://www.w3.org/2000/svg">
<path d="M69.335 18.8982C69.125 18.7587 67.375 17.3989 63.595 17.3989C62.615 17.3989 61.635 17.5035 60.655 17.6778C59.92 12.7964 55.825 10.3208 55.65 10.2162L54.635 9.62343L54.005 10.5649C53.165 11.8201 52.5 13.2497 52.22 14.7141C51.52 17.5035 51.94 20.1534 53.375 22.4198C51.66 23.3961 48.86 23.6402 48.265 23.6402H2.17C0.98 23.6402 0 24.6165 0 25.8368C0 29.8466 0.63 33.8563 2.03 37.622C3.605 41.7713 5.985 44.8396 9.03 46.7225C12.46 48.8145 18.095 50 24.5 50C27.265 50 30.135 49.7559 32.97 49.2329C36.89 48.5356 40.67 47.1757 44.135 45.1883C47.0047 43.5535 49.5732 41.4428 51.73 38.947C55.405 34.8675 57.575 30.2301 59.15 26.2204H59.815C63.805 26.2204 66.29 24.6165 67.655 23.2566C68.565 22.4198 69.23 21.4086 69.72 20.2232L70 19.3863L69.335 18.8982ZM6.475 22.3501H12.635C12.915 22.3501 13.195 22.106 13.195 21.7922V16.2831C13.195 16.0042 12.95 15.7252 12.635 15.7252H6.475C6.16 15.7252 5.915 15.9693 5.915 16.2831V21.7922C5.95 22.106 6.16 22.3501 6.475 22.3501ZM14.98 22.3501H21.14C21.42 22.3501 21.7 22.106 21.7 21.7922V16.2831C21.7 16.0042 21.455 15.7252 21.14 15.7252H14.98C14.665 15.7252 14.42 15.9693 14.42 16.2831V21.7922C14.455 22.106 14.665 22.3501 14.98 22.3501ZM23.625 22.3501H29.75C30.1 22.3501 30.345 22.106 30.345 21.7922V16.2831C30.345 16.0042 30.135 15.7252 29.75 15.7252H23.625C23.345 15.7252 23.1 15.9693 23.1 16.2831V21.7922C23.1 22.106 23.31 22.3501 23.625 22.3501ZM32.165 22.3501H38.36C38.64 22.3501 38.885 22.106 38.885 21.7922V16.2831C38.885 16.0042 38.675 15.7252 38.36 15.7252H32.165C31.885 15.7252 31.64 15.9693 31.64 16.2831V21.7922C31.64 22.106 31.885 22.3501 32.165 22.3501ZM14.98 14.5397H21.14C21.42 14.5397 21.7 14.2259 21.7 13.9121V8.43794C21.7 8.12413 21.455 7.88006 21.14 7.88006H14.98C14.665 7.88006 14.42 8.08926 14.42 8.43794V13.9121C14.455 14.2259 14.665 14.5397 14.98 14.5397ZM23.625 14.5397H29.75C30.1 14.5397 30.345 14.2259 30.345 13.9121V8.43794C30.345 8.12413 30.135 7.88006 29.75 7.88006H23.625C23.345 7.88006 23.1 8.08926 23.1 8.43794V13.9121C23.1 14.2259 23.31 14.5397 23.625 14.5397ZM32.165 14.5397H38.36C38.64 14.5397 38.885 14.2259 38.885 13.9121V8.43794C38.885 8.12413 38.64 7.88006 38.36 7.88006H32.165C31.885 7.88006 31.64 8.08926 31.64 8.43794V13.9121C31.64 14.2259 31.885 14.5397 32.165 14.5397ZM32.165 6.58996H38.36C38.64 6.58996 38.885 6.34589 38.885 6.03208V0.592748C38.885 0.244073 38.64 0 38.36 0H32.165C31.885 0 31.64 0.209205 31.64 0.592748V6.03208C31.64 6.31102 31.885 6.58996 32.165 6.58996ZM40.775 22.3501H46.935C47.25 22.3501 47.495 22.106 47.495 21.7922V16.2831C47.495 16.0042 47.25 15.7252 46.935 15.7252H40.775C40.495 15.7252 40.25 15.9693 40.25 16.2831V21.7922C40.25 22.106 40.495 22.3501 40.775 22.3501Z" fill="black"/>
</svg>
