<svg width="35" height="50" viewBox="0 0 35 50" fill="none" xmlns="http://www.w3.org/2000/svg">
<path d="M8.58848 0H17.1425V16.2041H8.58858C-2.69216 15.7864 -2.80609 0.438672 8.58848 0ZM8.58848 33.1013H17.1425V16.8972H8.58858C-2.80599 17.3358 -2.69216 32.6836 8.58848 33.1013ZM26.4285 0H17.8742V16.2041H26.4285C37.861 15.6246 37.7185 0.330762 26.4285 0ZM17.1425 41.8965V33.7943H8.58858C1.60815 33.7943 -2.80599 41.5459 2.04872 47.1135C6.67732 52.6319 17.1426 49.8807 17.1426 41.8965M35 24.9992C35 18.7727 27.8344 14.8601 22.133 17.9733C16.4316 21.0866 16.4315 28.9119 22.133 32.0252C27.8345 35.1385 35 31.2258 35 24.9992Z" fill="black"/>
</svg>
