<svg width="40" height="50" viewBox="0 0 40 50" fill="none" xmlns="http://www.w3.org/2000/svg">
<path d="M40 8.975V40.975C40 42.0917 39.6725 43.0917 39.0176 43.975C38.3627 44.8417 37.4811 45.425 36.3728 45.725L21.9395 49.85C21.738 49.9 21.5113 49.95 21.2594 50H20.7053C20.1511 50 19.6474 49.925 19.194 49.775C18.7406 49.625 18.2788 49.425 17.8086 49.175L8.36272 43.875C8.01008 43.675 7.733 43.4167 7.53149 43.1C7.32998 42.7833 7.22922 42.425 7.22922 42.025C7.22922 41.425 7.44752 40.9167 7.88413 40.5C8.30395 40.0833 8.81612 39.875 9.42066 39.875H21.6625V10.35L12.4433 13.6C11.7212 13.8667 11.1335 14.3333 10.6801 15C10.2267 15.6333 10 16.3417 10 17.125V33.95C10 34.65 9.82368 35.2833 9.47103 35.85C9.13518 36.4167 8.65659 36.8667 8.03526 37.2L3.70277 39.55C3.29975 39.7667 2.89673 39.875 2.4937 39.875C1.80521 39.875 1.21746 39.6333 0.730478 39.15C0.243493 38.6667 0 38.075 0 37.375V13.675C0 12.8083 0.2267 12 0.680101 11.25C1.15029 10.4167 1.76322 9.78333 2.51889 9.35L18.0353 0.6C18.3879 0.4 18.7657 0.25 19.1688 0.15C19.5718 0.0499999 19.9748 0 20.3778 0C20.6633 0 20.9236 0.0249999 21.1587 0.0749999C21.3938 0.108333 21.6541 0.166666 21.9395 0.25L36.3728 4.225C36.927 4.375 37.4223 4.6 37.8589 4.9C38.2955 5.2 38.6734 5.55833 38.9924 5.975C39.3283 6.40833 39.5802 6.875 39.7481 7.375C39.916 7.89167 40 8.425 40 8.975ZM36.6751 40.975V8.975C36.6751 8.59167 36.5743 8.25833 36.3728 7.975C36.1209 7.65833 35.8102 7.46667 35.4408 7.4L28.3375 5.45C27.817 5.3 27.2628 5.15 26.6751 5C26.1209 4.81667 25.5751 4.65833 25.0378 4.525V45.525L35.4408 42.5C35.8102 42.4333 36.1209 42.2583 36.3728 41.975C36.5743 41.6917 36.6751 41.3583 36.6751 40.975Z" fill="black"/>
</svg>
