<svg width="50" height="50" viewBox="0 0 50 50" fill="none" xmlns="http://www.w3.org/2000/svg">
<path d="M41.1445 7.97457e-06H8.85547C7.69212 -0.00157414 6.5399 0.232273 5.46481 0.688152C4.38972 1.14403 3.41289 1.81298 2.59027 2.65669C1.76766 3.5004 1.11543 4.50228 0.670948 5.60493C0.226466 6.70759 -0.00153479 7.88936 7.7752e-06 9.08254V40.9175C-0.00153479 42.1106 0.226466 43.2924 0.670948 44.3951C1.11543 45.4977 1.76766 46.4996 2.59027 47.3433C3.41289 48.187 4.38972 48.856 5.46481 49.3118C6.5399 49.7677 7.69212 50.0016 8.85547 50H41.1445C42.3079 50.0016 43.4601 49.7677 44.5352 49.3118C45.6103 48.856 46.5871 48.187 47.4097 47.3433C48.2323 46.4996 48.8846 45.4977 49.3291 44.3951C49.7735 43.2924 50.0015 42.1106 50 40.9175V9.08254C50.0015 7.88936 49.7735 6.70759 49.3291 5.60493C48.8846 4.50228 48.2323 3.5004 47.4097 2.65669C46.5871 1.81298 45.6103 1.14403 44.5352 0.688152C43.4601 0.232273 42.3079 -0.00157414 41.1445 7.97457e-06ZM30.5625 35.2564H26.207C26.1336 35.2621 26.0605 35.2418 26.0001 35.1987C25.9396 35.1557 25.8954 35.0926 25.875 35.02L24.168 29.9159H16.4063L14.8438 34.9359C14.8267 35.0268 14.7772 35.1079 14.705 35.1635C14.6328 35.219 14.543 35.245 14.4531 35.2364H10.5469C10.3203 35.2364 10.2578 35.1082 10.3203 34.8357L17 15.0441C17.0625 14.8277 17.125 14.5954 17.207 14.3389C17.2924 13.8808 17.3343 13.4152 17.332 12.9487C17.3261 12.8949 17.3401 12.8408 17.3712 12.797C17.4023 12.7532 17.4482 12.723 17.5 12.7123H22.8945C23.0625 12.7123 23.1445 12.7764 23.168 12.8846L30.7695 34.8918C30.832 35.1282 30.7695 35.2364 30.5625 35.2364V35.2564ZM37.75 35.016C37.75 35.2524 37.668 35.3566 37.4805 35.3566H33.3945C33.3509 35.36 33.3071 35.3533 33.2664 35.3371C33.2256 35.3209 33.1889 35.2956 33.1589 35.2629C33.129 35.2302 33.1065 35.1911 33.0932 35.1484C33.0799 35.1057 33.0761 35.0604 33.082 35.016V18.5457C33.082 18.3333 33.168 18.2492 33.3555 18.2492H37.5C37.6875 18.2492 37.7695 18.3534 37.7695 18.5457L37.75 35.016ZM37.3125 15.7051C37.0668 15.9611 36.7708 16.1603 36.4441 16.2895C36.1174 16.4187 35.7675 16.4749 35.418 16.4543C35.0757 16.4621 34.7353 16.3998 34.4167 16.2712C34.0982 16.1425 33.8078 15.9501 33.5625 15.7051C33.083 15.1708 32.8289 14.4637 32.8555 13.738C32.8409 13.3859 32.8991 13.0347 33.0263 12.7074C33.1536 12.3801 33.347 12.0841 33.5937 11.8389C34.0929 11.3525 34.7568 11.0839 35.4453 11.0897C35.7953 11.0712 36.1451 11.1283 36.4722 11.2574C36.7992 11.3864 37.0962 11.5846 37.3437 11.8389C37.8041 12.3567 38.0506 13.0375 38.0312 13.738C38.0452 14.0984 37.9888 14.4581 37.8654 14.7959C37.742 15.1337 37.554 15.4429 37.3125 15.7051ZM22.918 25.5769H17.625C17.9375 24.6795 18.25 23.6739 18.543 22.5841C18.8359 21.4944 19.1875 20.4487 19.5 19.4231C19.7846 18.5182 20.0206 17.598 20.207 16.6667H20.25C20.3945 17.1795 20.543 17.7364 20.707 18.3333C20.8711 18.9303 21.0625 19.5713 21.2695 20.2364C21.4766 20.9014 21.6602 21.5385 21.875 22.1995C22.0898 22.8606 22.2656 23.4615 22.4375 24.0385C22.6094 24.6154 22.793 25.1282 22.918 25.5769Z" fill="black"/>
</svg>
