<svg width="65" height="50" viewBox="0 0 65 50" fill="none" xmlns="http://www.w3.org/2000/svg">
<path d="M50.9738 20.9616H50.9851C56.8906 23.2619 64.9944 26.4049 64.9944 35.3015C64.9829 37.3616 64.5515 39.396 63.7285 41.2715C62.923 43.1505 61.7442 44.8326 60.2691 46.2082C58.7939 47.5837 57.0554 48.6219 55.1669 49.255C53.2845 49.9021 51.2916 50.1315 49.318 49.9281C48.9163 49.9739 48.5126 49.9974 48.1086 49.9984C44.6111 49.986 41.2423 48.6304 38.6542 46.1939C37.1764 44.8221 35.9918 43.1456 35.1763 41.2718C34.3607 39.3981 33.9323 37.3685 33.9185 35.3132C33.9185 34.1309 34.3593 33.0305 35.1617 32.1994C35.9703 31.4048 37.0423 30.9619 38.1569 30.9619C39.2714 30.9619 40.3435 31.4048 41.152 32.1994C41.5492 32.6042 41.8643 33.0871 42.0788 33.6199C42.2933 34.1526 42.4028 34.7243 42.4009 35.3015C42.4009 40.8735 48.2838 41.1545 49.4649 41.1545C50.646 41.1545 56.5289 40.8735 56.5289 35.3015C56.5289 32.8842 54.0028 31.5087 47.973 29.1675H47.956C42.0449 26.8556 33.9241 23.7125 33.9241 14.816C33.943 12.7206 34.3649 10.7306 35.19 8.84592C35.9995 6.96898 37.1818 5.28976 38.6598 3.91769C40.1306 2.54532 41.8634 1.50839 43.7459 0.874135C47.4736 -0.291378 51.4505 -0.291378 55.1782 0.874135C58.0207 1.83507 60.499 3.69824 62.2618 6.19955C64.0247 8.70085 64.9827 11.7134 65 14.8101C65 15.9866 64.5592 17.0928 63.7567 17.9181C62.9479 18.7143 61.8747 19.1584 60.7588 19.1584C59.6429 19.1584 58.5696 18.7143 57.7608 17.9181C57.3646 17.5128 57.0506 17.0296 56.8371 16.4969C56.6236 15.9642 56.5149 15.3927 56.5176 14.816C56.5176 9.24393 50.6347 8.96298 49.4536 8.96298C48.2725 8.96298 42.3896 9.24393 42.3896 14.816C42.3896 17.2333 44.9157 18.6087 50.9455 20.9499L50.9738 20.9616ZM22.6105 4.57323C22.6105 3.40263 23.0513 2.30227 23.8537 1.47114C24.6622 0.676585 25.7343 0.233639 26.8488 0.233639C27.9634 0.233639 29.0355 0.676585 29.844 1.47114C30.6464 2.29641 31.0872 3.40263 31.0872 4.57323V33.8382C31.0883 37.0224 30.1774 40.1354 28.4698 42.7833C26.7622 45.4313 24.3347 47.4951 21.4944 48.7138C18.654 49.9325 15.5285 50.2513 12.5132 49.6298C9.49792 49.0083 6.72836 47.4744 4.55492 45.2223C3.10594 43.7315 1.95718 41.9575 1.17529 40.0033C0.393393 38.0491 -0.00606943 35.9536 6.97008e-05 33.8382V30.9117C6.97008e-05 29.7411 0.440862 28.6408 1.24333 27.8096C2.05213 27.0134 3.12538 26.5694 4.24128 26.5694C5.35718 26.5694 6.43043 27.0134 7.23924 27.8096C8.04171 28.6349 8.4825 29.7411 8.4825 30.9117V33.8382C8.4825 35.7697 9.23976 37.6544 10.5508 39.0123C13.1786 41.7339 17.9143 41.7339 20.5421 39.0123C21.8532 37.6485 22.6105 35.7639 22.6105 33.8382V4.57323Z" fill="black"/>
</svg>
