<svg width="55" height="50" viewBox="0 0 55 50" fill="none" xmlns="http://www.w3.org/2000/svg">
<path d="M27.5 20.0868C30.1349 20.0868 32.2837 22.2705 32.2837 25C32.2837 27.5996 30.1349 29.8092 27.5 29.8092C24.8651 29.8092 22.7163 27.5996 22.7163 25C22.7163 22.2705 24.8651 20.0868 27.5 20.0868ZM15.6558 45.7964C17.2674 46.7843 20.7977 45.2765 24.8651 41.3772C23.5349 39.8435 22.2302 38.1797 21.0023 36.438C18.941 36.2361 16.8917 35.9237 14.8628 35.5022C13.5581 41.0652 14.0442 44.8866 15.6558 45.7964ZM17.4721 30.875L16.7302 29.5492C16.4488 30.3031 16.1674 31.057 15.9884 31.7848C16.6791 31.9408 17.4465 32.0708 18.2395 32.2008L17.4721 30.875ZM34.2023 28.8993L36.2744 25L34.2023 21.1007C33.4349 19.7229 32.6163 18.5011 31.8744 17.2793C30.493 17.2013 29.0349 17.2013 27.5 17.2013C25.9651 17.2013 24.507 17.2013 23.1256 17.2793C22.3837 18.5011 21.5651 19.7229 20.7977 21.1007L18.7256 25L20.7977 28.8993C21.5651 30.2771 22.3837 31.4989 23.1256 32.7207C24.507 32.7987 25.9651 32.7987 27.5 32.7987C29.0349 32.7987 30.493 32.7987 31.8744 32.7207C32.6163 31.4989 33.4349 30.2771 34.2023 28.8993ZM27.5 11.4303C27.014 12.0022 26.5023 12.6001 25.9907 13.302H29.0093C28.4977 12.6001 27.986 12.0022 27.5 11.4303ZM27.5 38.5697C27.986 37.9978 28.4977 37.3999 29.0093 36.698H25.9907C26.5023 37.3999 27.014 37.9978 27.5 38.5697ZM39.3186 4.20356C37.7326 3.21573 34.2023 4.72348 30.1349 8.62281C31.4651 10.1565 32.7698 11.8203 33.9977 13.562C36.0953 13.7699 38.1674 14.0819 40.1372 14.4978C41.4419 8.93475 40.9558 5.11341 39.3186 4.20356ZM37.5279 19.125L38.2698 20.4508C38.5512 19.6969 38.8326 18.943 39.0116 18.2152C38.3209 18.0592 37.5535 17.9292 36.7605 17.7992L37.5279 19.125ZM41.2372 0.798149C44.9977 2.98177 45.407 8.72679 43.8209 15.4336C50.3186 17.3833 55 20.6068 55 25C55 29.3932 50.3186 32.6167 43.8209 34.5664C45.407 41.2732 44.9977 47.0182 41.2372 49.2018C37.5023 51.3855 32.4116 48.8899 27.5 44.1327C22.5884 48.8899 17.4977 51.3855 13.7372 49.2018C10.0023 47.0182 9.59302 41.2732 11.1791 34.5664C4.6814 32.6167 0 29.3932 0 25C0 20.6068 4.6814 17.3833 11.1791 15.4336C9.59302 8.72679 10.0023 2.98177 13.7372 0.798149C17.4977 -1.38548 22.5884 1.1101 27.5 5.86728C32.4116 1.1101 37.5023 -1.38548 41.2372 0.798149ZM40.4953 25C41.3651 26.9497 42.1326 28.8993 42.7721 30.875C48.1442 29.2373 51.1628 26.8977 51.1628 25C51.1628 23.1023 48.1442 20.7627 42.7721 19.125C42.1326 21.1007 41.3651 23.0503 40.4953 25ZM14.5047 25C13.6349 23.0503 12.8674 21.1007 12.2279 19.125C6.85581 20.7627 3.83721 23.1023 3.83721 25C3.83721 26.8977 6.85581 29.2373 12.2279 30.875C12.8674 28.8993 13.6349 26.9497 14.5047 25ZM37.5279 30.875L36.7605 32.2008C37.5535 32.0708 38.3209 31.9408 39.0116 31.7848C38.8326 31.057 38.5512 30.3031 38.2698 29.5492L37.5279 30.875ZM30.1349 41.3772C34.2023 45.2765 37.7326 46.7843 39.3186 45.7964C40.9558 44.8866 41.4419 41.0652 40.1372 35.5022C38.1674 35.9181 36.0953 36.2301 33.9977 36.438C32.7698 38.1797 31.4651 39.8435 30.1349 41.3772ZM17.4721 19.125L18.2395 17.7992C17.4465 17.9292 16.6791 18.0592 15.9884 18.2152C16.1674 18.943 16.4488 19.6969 16.7302 20.4508L17.4721 19.125ZM24.8651 8.62281C20.7977 4.72348 17.2674 3.21573 15.6558 4.20356C14.0442 5.11341 13.5581 8.93475 14.8628 14.4978C16.8917 14.0763 18.941 13.7639 21.0023 13.562C22.2302 11.8203 23.5349 10.1565 24.8651 8.62281Z" fill="black"/>
</svg>
