<svg width="16" height="21" viewBox="0 0 16 21" fill="none" xmlns="http://www.w3.org/2000/svg">
<path d="M12.3972 2.6682C11.7708 2.6682 11.2631 2.16045 11.2631 1.53411C11.2631 0.907772 11.7708 0.400024 12.3972 0.400024C13.0235 0.400024 13.5312 0.907772 13.5312 1.53411C13.5312 2.16045 13.0235 2.6682 12.3972 2.6682Z" stroke="black" stroke-width="0.8" stroke-miterlimit="10"/>
<path d="M6.71532 10.1932L4.50234 13.3539C4.20368 13.7507 3.83635 14.0907 3.41778 14.358L0.877045 15.8572C0.708566 15.9458 0.572818 16.0859 0.489638 16.2571C0.406458 16.4283 0.380205 16.6216 0.414715 16.8087C0.452595 16.8874 0.50618 16.9574 0.572166 17.0145C0.638152 17.0716 0.715137 17.1146 0.798377 17.1408C0.881617 17.167 0.969344 17.1759 1.05615 17.1669C1.14295 17.1579 1.22699 17.1312 1.30308 17.0885L4.50386 15.7729C4.96051 15.5707 5.38623 15.3048 5.76836 14.9832L8.60547 12.4614" stroke="black" stroke-width="0.8" stroke-linecap="round" stroke-linejoin="round"/>
<path d="M10.9305 8.43916L10.7128 8.93816C10.6623 9.13021 10.653 9.33074 10.6855 9.52664C10.7179 9.72253 10.7914 9.90936 10.901 10.0749L12.7352 12.9574C12.9813 13.3831 13.1238 13.8606 13.1514 14.3515L13.2255 19.6439C13.2412 19.8287 13.183 20.012 13.0635 20.1538C12.9441 20.2956 12.7732 20.3841 12.5885 20.4C12.3971 20.3811 12.2183 20.2957 12.0833 20.1586C11.9484 20.0214 11.8657 19.8414 11.8499 19.6496L11.3425 15.48C11.2596 15.0009 11.0425 14.5553 10.7165 14.1947L9.51742 12.9963C9.15839 12.6431 8.78641 12.3032 8.40224 11.9775L7.29537 11.0551C6.94929 10.7321 6.74128 10.2879 6.71472 9.81519C6.73437 9.32171 6.85776 8.83791 7.07687 8.39531L8.98289 4.90081C9.73895 3.3887 10.6311 3.30062 11.2628 3.54634C11.5451 3.66367 11.7834 3.86669 11.944 4.12675C12.1047 4.3868 12.1797 4.69075 12.1583 4.9957" stroke="black" stroke-width="0.8" stroke-linecap="round" stroke-linejoin="round"/>
<path d="M10.8969 4.90088L11.4337 6.82013C11.4994 7.02382 11.6258 7.20257 11.7959 7.33248C11.966 7.46239 12.1717 7.53726 12.3855 7.54708H15.0317" stroke="black" stroke-width="0.8" stroke-linecap="round" stroke-linejoin="round"/>
</svg>
