<svg width="20" height="20" viewBox="0 0 20 20" fill="none" xmlns="http://www.w3.org/2000/svg">
<path fill-rule="evenodd" clip-rule="evenodd" d="M18.1666 7.99373C17.9333 8.31387 16.685 10.1269 16.5017 10.446C16.3183 10.7661 16.0683 11.1289 15.8608 11.5131C15.381 12.3413 14.9199 13.1872 14.4783 14.0497C14.4543 14.0883 14.4366 14.1329 14.4264 14.1807C14.4163 14.2284 14.4139 14.2783 14.4194 14.3272C14.4248 14.3762 14.438 14.4232 14.4582 14.4654C14.4784 14.5076 14.5051 14.5441 14.5367 14.5726C14.5975 14.6332 14.6746 14.6604 14.7512 14.6484C14.8277 14.6364 14.8974 14.5861 14.945 14.5085C15.4867 13.7189 16.0692 12.9836 16.61 12.2057C16.9766 11.6828 18.275 9.68939 18.625 9.15583C18.975 8.62227 18.7166 7.23713 18.1666 7.99373Z" fill="black"/>
<path fill-rule="evenodd" clip-rule="evenodd" d="M19.7491 4.96631C19.7409 4.87483 19.7065 4.79046 19.6527 4.7294C19.5989 4.66834 19.5293 4.6349 19.4574 4.6355C19.4188 4.63403 19.3804 4.64268 19.3445 4.66093C19.3085 4.67917 19.2759 4.70663 19.2486 4.74161C19.2213 4.77659 19.1999 4.81836 19.1856 4.86434C19.1714 4.91032 19.1646 4.95955 19.1658 5.009C19.1658 5.69196 19.2241 8.44195 19.2074 8.79303C19.1908 9.28711 19.1216 9.77479 18.9991 10.2443C18.9359 10.4536 18.8461 10.6479 18.7333 10.8195C18.5333 11.1396 18.2916 11.4384 18.0833 11.7159L16.3025 14.2311C15.4691 15.4156 14.77 16.7474 13.9542 17.9415C13.7625 18.2083 13.5458 18.4431 13.3375 18.6992C13.384 18.1249 13.4063 17.5478 13.4042 16.9704V16.1498C13.4042 15.883 13.3458 15.6066 13.3042 15.3505C13.2208 14.8276 13.0967 14.3378 12.9883 13.8256C13.78 12.5781 14.6116 11.384 15.4108 10.1472C15.9191 9.37995 16.3941 8.59134 16.8849 7.81234C17.6183 6.63957 18.3333 5.44545 19.0833 4.28335C19.5082 3.67509 19.3416 3.49368 19.2499 3.40831C18.9003 3.03601 18.5101 2.73115 18.0916 2.50338C17.5015 2.17855 16.892 1.91448 16.2691 1.71371L11.9308 0.370198C11.3001 0.172126 10.6561 0.0506473 10.0075 0.00737498C9.51845 -0.0277695 9.02882 0.0629434 8.56756 0.274157C8.26645 0.4513 7.98868 0.675397 7.73423 0.946447C7.34341 1.30927 7.01841 1.73612 6.67758 2.07653C6.16925 2.66345 5.67759 3.28239 5.2201 3.9216C4.52928 4.87027 3.88012 5.86163 3.22179 6.86367C2.68847 7.66401 2.09847 8.38859 1.60681 9.20921C1.38488 9.57913 1.187 9.97173 1.01515 10.3831C1.00287 10.4352 1.00287 10.4909 1.01515 10.5431C0.881823 10.6833 0.768213 10.8465 0.674326 11.0329C0.46257 11.449 0.304966 11.9064 0.207665 12.3871C-0.0692217 13.4237 -0.0692217 14.5487 0.207665 15.5853C0.505957 16.584 1.02737 17.448 1.70681 18.0696C2.3068 18.6031 2.98763 18.966 3.70512 19.1367C4.70511 19.3384 5.71593 19.4312 6.72758 19.4131C7.61007 19.4131 8.73422 19.5198 9.87421 19.6265C11.0159 19.7332 12.1225 19.8613 13.005 20C13.005 20 14.1625 18.8048 14.3875 18.5274C15.27 17.4613 16.0525 16.1925 16.9433 15.1158C17.2099 14.7956 17.4683 14.4648 17.7099 14.1244C18.0758 13.6228 18.4166 13.0583 18.7749 12.5888C19.0204 12.2527 19.2487 11.8966 19.4583 11.5227C19.6116 11.2304 19.7335 10.9177 19.8241 10.5847C19.9491 9.99782 20.0082 9.39169 19.9991 8.78343C19.9991 7.4922 19.7824 6.0964 19.7491 4.96631ZM2.30597 9.34794C2.77263 8.70766 3.30596 8.11114 3.78012 7.46126C4.46935 6.52808 5.17167 5.61091 5.88676 4.7102C6.35259 4.12328 6.83591 3.56838 7.35174 3.01454C7.65174 2.68373 7.96007 2.27822 8.30089 1.94848C8.48978 1.74572 8.69533 1.57498 8.91755 1.43626C9.24928 1.2922 9.59944 1.23063 9.94921 1.25485C10.5492 1.27903 11.1431 1.36796 11.7308 1.52163L16.1025 2.58876C16.6952 2.74527 17.2752 2.95869 17.8424 3.22903C18.1058 3.37843 18.3585 3.55593 18.6008 3.76153C17.7674 4.82759 16.9758 5.81895 16.2025 6.90635C15.8775 7.37589 15.5525 7.85609 15.2358 8.34591C14.92 8.83678 14.6116 9.33833 14.3292 9.84949C11.9975 13.9963 13.4958 13.4318 10.765 12.6848C8.56756 12.0979 6.41925 11.0329 4.17928 10.5954C3.63762 10.4994 2.9893 10.2326 2.37264 10.1686C2.16591 10.1626 1.95926 10.1841 1.75598 10.2326C1.92764 9.92597 2.11097 9.63108 2.30597 9.34794ZM9.94921 18.6874C8.89964 18.5384 7.84776 18.4174 6.79425 18.3246C5.83027 18.2961 4.86966 18.168 3.92178 17.9415C3.34023 17.7889 2.79167 17.4757 2.3143 17.0238C1.78721 16.5472 1.3842 15.8787 1.15765 15.1051C0.957225 14.3333 0.957225 13.4993 1.15765 12.7275C1.2221 12.428 1.31098 12.1403 1.42432 11.8642C1.48652 11.6772 1.60263 11.5282 1.74848 11.448C2.02347 11.3776 2.3068 11.3776 2.58097 11.448C3.11429 11.5227 3.65512 11.6935 4.10428 11.7575C6.32759 12.0456 8.48423 12.9634 10.6825 13.4425C11.2325 13.5727 11.7875 13.6616 12.3475 13.7093C12.3142 14.3951 12.3142 15.0809 12.3475 15.7667C12.3847 16.1722 12.4375 16.5738 12.5058 16.9715C12.8558 19.8389 13.4633 19.1676 9.94921 18.6874Z" fill="black"/>
<path fill-rule="evenodd" clip-rule="evenodd" d="M11.04 14.6046C10.1185 14.1809 9.17893 13.8246 8.22585 13.5375C7.40253 13.3054 6.56299 13.1807 5.72005 13.165C4.7388 13.1183 3.7562 13.1683 2.78092 13.3144C2.70357 13.3144 2.62938 13.3538 2.57468 13.4238C2.51999 13.4939 2.48926 13.5889 2.48926 13.6879C2.48926 13.787 2.51999 13.882 2.57468 13.952C2.62938 14.0221 2.70357 14.0614 2.78092 14.0614C3.59647 14.0799 4.40951 14.1511 5.22006 14.2748C5.97005 14.3698 6.72754 14.5299 7.47669 14.6473C8.63418 14.8394 9.775 14.9888 10.8816 15.2662C10.9139 15.279 10.948 15.283 10.9816 15.2779C11.0151 15.2727 11.0475 15.2587 11.0765 15.2365C11.1056 15.2144 11.1307 15.1847 11.1503 15.1494C11.1698 15.1141 11.1833 15.0739 11.19 15.0314C11.202 14.9908 11.2077 14.9475 11.2067 14.9041C11.2057 14.8606 11.198 14.8178 11.1841 14.7782C11.1701 14.7386 11.1502 14.7028 11.1255 14.673C11.1008 14.6432 11.0717 14.62 11.04 14.6046ZM10.8816 16.9288C10.0105 16.5535 9.12392 16.24 8.22585 15.9897C7.84252 15.8937 7.45086 15.819 7.06003 15.7549C6.66837 15.6909 6.27754 15.6589 5.87838 15.6482C4.95944 15.6011 4.03916 15.6189 3.12175 15.7016C3.08383 15.7016 3.04629 15.7113 3.01136 15.7302C2.97643 15.7491 2.94482 15.7768 2.9184 15.8116C2.89198 15.8464 2.87129 15.8877 2.85755 15.933C2.84381 15.9782 2.8373 16.0266 2.83842 16.0751C2.83839 16.1723 2.86797 16.2657 2.92088 16.3355C2.97379 16.4052 3.04585 16.4458 3.12175 16.4486C3.63008 16.4486 4.1384 16.5553 4.66256 16.63C5.18756 16.7047 5.67005 16.8114 6.18588 16.8861L7.70169 17.1315C8.75001 17.2703 9.77416 17.3663 10.765 17.5691C10.7978 17.5803 10.8321 17.5832 10.8658 17.5775C10.8995 17.5718 10.932 17.5577 10.9614 17.5359C10.9908 17.514 11.0166 17.485 11.0372 17.4504C11.0578 17.4158 11.0729 17.3764 11.0816 17.3343C11.0945 17.2469 11.081 17.1564 11.0439 17.0812C11.0068 17.006 10.9488 16.9515 10.8816 16.9288ZM7.75169 5.45611C7.92391 5.68945 8.08502 5.93489 8.23502 6.19242C8.3339 6.35747 8.42251 6.53177 8.50085 6.71532C8.52296 6.78361 8.56044 6.84193 8.60853 6.88285C8.65661 6.92377 8.71312 6.94544 8.77085 6.9451C8.82858 6.94475 8.88493 6.92241 8.93271 6.88092C8.9805 6.83943 9.01756 6.78067 9.03917 6.71212C9.06872 6.62075 9.06962 6.51831 9.04167 6.42613C8.97293 6.13724 8.88655 5.85571 8.78334 5.58416C8.68334 5.31738 8.57501 5.07194 8.46668 4.80516L9.12501 4.55012C9.28334 4.48609 9.44445 4.43273 9.60833 4.39005C9.77 4.34878 9.93388 4.32389 10.1 4.31535C10.1339 4.31885 10.168 4.31376 10.2004 4.30038C10.2328 4.28699 10.2628 4.26556 10.2888 4.23732C10.3147 4.20908 10.336 4.17458 10.3515 4.13578C10.367 4.09699 10.3764 4.05466 10.3792 4.01122C10.3819 3.96777 10.3779 3.92407 10.3675 3.88259C10.357 3.84111 10.3403 3.80268 10.3182 3.76949C10.2962 3.73629 10.2692 3.70898 10.2389 3.68912C10.2086 3.66926 10.1756 3.65723 10.1417 3.65373C9.95177 3.60824 9.75964 3.57971 9.56667 3.56836H8.99167L8.06752 3.68574L7.79252 3.7391H7.65919C7.23503 3.8138 7.2267 4.43273 7.2267 4.4434C7.24586 4.62695 7.2967 4.80196 7.37669 4.95562C7.51003 5.11569 7.65169 5.29604 7.75169 5.45611ZM12.6883 5.05167C12.6644 5.0815 12.6453 5.11717 12.6323 5.15658C12.6193 5.19598 12.6126 5.23832 12.6126 5.2811C12.6126 5.32387 12.6193 5.36621 12.6323 5.40562C12.6453 5.44503 12.6644 5.4807 12.6883 5.51053C12.8716 5.75668 13.0383 6.01955 13.1883 6.29914C13.2966 6.50829 13.3911 6.72848 13.4716 6.95969H13.4216C13.2216 6.99882 13.0244 7.05573 12.83 7.13043C12.4216 7.2905 11.9975 7.5146 11.6233 7.63198C11.5666 7.64205 11.5135 7.67327 11.4705 7.72173C11.4276 7.7702 11.3967 7.83378 11.3818 7.90454C11.3669 7.9753 11.3686 8.05013 11.3866 8.11969C11.4046 8.18925 11.4383 8.25047 11.4833 8.29573C11.5438 8.35743 11.6205 8.38687 11.6975 8.3779L13.4883 8.17515C13.6922 8.18653 13.8947 8.16874 14.0958 8.12179C14.2735 8.0749 14.4344 7.95501 14.5541 7.78031C14.6038 7.70011 14.6392 7.60701 14.6579 7.50749C14.6766 7.40797 14.6782 7.30442 14.6624 7.20406C14.5936 6.97687 14.507 6.75915 14.4041 6.55418C14.2549 6.29377 14.0876 6.05125 13.9041 5.8296C13.6468 5.52048 13.3682 5.24189 13.0716 4.99724C13.0446 4.966 13.0127 4.94243 12.9781 4.92808C12.9434 4.91372 12.9068 4.90891 12.8706 4.91395C12.8344 4.91898 12.7995 4.93376 12.7681 4.95731C12.7366 4.98086 12.7094 5.01372 12.6883 5.05167ZM8.76668 7.99373C8.73351 8.03813 8.70914 8.09206 8.69561 8.15101C8.68208 8.20996 8.67979 8.27221 8.68894 8.33252C8.69808 8.39284 8.71838 8.44947 8.74815 8.49766C8.77792 8.54585 8.81628 8.58419 8.86001 8.60947C8.91283 8.63825 8.97124 8.6458 9.02749 8.63113C9.08374 8.61645 9.13518 8.58025 9.17501 8.5273L10.84 6.9917C11.1233 6.66089 11.415 6.34076 11.6733 5.9886C12.065 5.46678 12.4058 4.92361 12.805 4.35803C12.8442 4.34126 12.8797 4.31266 12.9085 4.27464C12.9374 4.23662 12.9586 4.1903 12.9705 4.13956C12.9825 4.08883 12.9847 4.03517 12.977 3.98311C12.9694 3.93104 12.9521 3.88209 12.9266 3.84037C12.9011 3.79864 12.8681 3.76537 12.8305 3.74336C12.7929 3.72134 12.7517 3.71122 12.7104 3.71384C12.669 3.71647 12.6288 3.73176 12.5931 3.75844C12.5573 3.78512 12.5271 3.82241 12.505 3.86715C12.01 4.24919 11.5328 4.66537 11.0733 5.11569C10.7733 5.41449 10.5067 5.7549 10.2408 6.06437L8.76668 7.99373Z" fill="black"/>
</svg>
