<svg width="19" height="20" viewBox="0 0 19 20" fill="none" xmlns="http://www.w3.org/2000/svg">
<path fill-rule="evenodd" clip-rule="evenodd" d="M8.86062 9.18581C8.92642 9.17045 8.98457 9.13208 9.02457 9.07762C9.06456 9.02317 9.08378 8.95621 9.07875 8.88882C9.07372 8.82144 9.04478 8.75808 8.99714 8.71016C8.94951 8.66224 8.88631 8.63292 8.81896 8.6275C8.15098 8.65831 7.49221 8.46223 6.94982 8.07113C6.40742 7.68003 6.0133 7.11692 5.83155 6.4734C5.59009 5.65866 5.57281 4.79388 5.78156 3.97015C5.82517 4.00832 5.87265 4.04183 5.92322 4.07015C6.77656 4.41977 7.71104 4.52234 8.61991 4.36615C9.52877 4.20996 10.3754 3.8013 11.0631 3.18684C11.2158 3.51461 11.4047 3.82015 11.6297 4.10348C12.2813 4.72929 13.3655 4.84679 13.6163 5.23011C13.639 5.28237 13.6807 5.32406 13.733 5.34677C13.5687 6.23677 13.1278 7.05225 12.4731 7.67707C11.8183 8.30189 10.9831 8.70418 10.0864 8.82666C10.0318 8.84768 9.98623 8.88721 9.95774 8.93836C9.92925 8.98952 9.91963 9.04905 9.93054 9.10658C9.94145 9.1641 9.9722 9.21597 10.0174 9.25315C10.0627 9.29032 10.1195 9.31043 10.1781 9.30998C16.5862 8.20085 15.4512 -0.276382 10.1281 0.00694199C2.58583 0.584424 3.96245 9.58664 8.86062 9.18581ZM13.783 4.4468C13.0172 3.86577 12.2175 3.33095 11.388 2.84518C11.7586 2.45409 12.1008 2.03965 12.4147 1.60189C12.8286 1.94898 13.1644 2.37963 13.4002 2.8656C13.636 3.35157 13.7665 3.88189 13.783 4.4218V4.4468ZM11.9222 1.29273C11.1379 2.19899 10.1276 2.88129 8.99395 3.27017C8.24314 3.5035 6.57403 3.79599 6.03155 3.4285C6.04246 3.39321 6.04246 3.35545 6.03155 3.32017C7.03318 1.16774 10.3122 0.459427 11.923 1.29273" fill="black"/>
<path fill-rule="evenodd" clip-rule="evenodd" d="M8.32649 5.99843C8.35207 6.02438 8.38256 6.04498 8.41618 6.05905C8.4498 6.07311 8.48588 6.08036 8.52232 6.08036C8.55876 6.08036 8.59484 6.07311 8.62846 6.05905C8.66207 6.04498 8.69256 6.02438 8.71814 5.99843C8.92647 5.79843 8.65148 4.73013 7.72568 4.8143C6.65738 4.93096 6.65738 6.09926 7.1332 6.03176C7.60818 5.96509 7.64151 5.10595 8.32649 5.99843ZM12.123 6.11592C12.3314 5.91593 11.8389 4.5968 11.0047 4.71347C10.5206 4.8468 9.96977 5.65677 10.2789 5.8401C10.3102 5.87367 10.3498 5.89831 10.3938 5.91149C10.4377 5.92467 10.4843 5.92592 10.5289 5.9151C10.5886 5.90889 10.6438 5.88072 10.6839 5.83605C10.7239 5.79139 10.7459 5.73342 10.7456 5.67344C11.3881 5.18179 11.6556 6.54924 12.1222 6.11509M10.5623 7.51754C10.6005 7.46173 10.6176 7.39407 10.6103 7.32679C10.603 7.25951 10.5718 7.19706 10.5225 7.15074C10.4732 7.10442 10.4089 7.0773 10.3413 7.07427C10.2737 7.07124 10.2072 7.0925 10.1539 7.13422C9.98727 7.25089 9.80311 7.22589 9.21063 7.22589C9.03795 7.27125 8.85475 7.25352 8.69398 7.17589C8.65136 7.12821 8.59184 7.09902 8.52805 7.09451C8.46426 7.09 8.40122 7.11053 8.35231 7.15173C8.30341 7.19294 8.27249 7.25158 8.26611 7.31521C8.25973 7.37884 8.2784 7.44245 8.31816 7.49254C8.42917 7.69138 8.59073 7.85738 8.78648 7.97376C8.98223 8.09013 9.20524 8.15275 9.43296 8.15529C9.66068 8.15783 9.88503 8.10019 10.0833 7.9882C10.2816 7.87622 10.4468 7.71386 10.5623 7.51754ZM15.4846 17.8797C13.8974 18.059 12.3355 18.4174 10.8289 18.948C10.3867 19.0941 9.95283 19.2636 9.52729 19.4563C9.57728 19.3063 10.1281 12.1316 9.74394 11.7557C9.66394 11.6599 9.55098 11.5975 9.42729 11.5807C8.83564 11.5224 8.184 10.1625 6.19823 9.51165C5.31042 9.26067 4.39258 9.13171 3.46998 9.12833C3.16166 9.12833 2.54418 9.06916 2.39418 9.36165C2.37944 9.40191 2.37463 9.44514 2.38015 9.48765C2.38567 9.53017 2.40136 9.57073 2.4259 9.60589C2.45043 9.64106 2.48308 9.66978 2.52107 9.68964C2.55907 9.7095 2.6013 9.71991 2.64417 9.71997H3.39498C5.62324 10.2616 6.9582 10.4541 8.80981 11.9724C9.37729 12.5066 8.74314 14.1757 8.97647 19.098C8.36929 18.8488 7.74133 18.6536 7.09986 18.5147C5.53908 17.9464 4.20412 18.1222 2.7275 17.9464H1.66837C1.30088 17.9464 1.20089 17.9464 1.20089 17.3631C1.20089 16.5281 1.45921 16.0781 1.06756 16.0448C1.00303 16.0422 0.939863 16.0638 0.890505 16.1054C0.841147 16.1471 0.809178 16.2057 0.800898 16.2698C0.700902 17.1622 0.11592 18.2805 1.35088 18.6647C1.75976 18.7408 2.17141 18.7936 2.58584 18.823C4.04579 19.1063 5.52241 18.9063 6.8657 19.2563C7.63064 19.6341 8.46027 19.8634 9.31063 19.9321C9.31063 20.0238 9.61062 20.2738 15.4604 18.5555C15.6393 18.47 15.8004 18.3589 15.9437 18.2222C15.9645 18.162 15.9656 18.0968 15.9468 18.036C15.9281 17.9752 15.8905 17.9219 15.8394 17.8839C15.7884 17.8459 15.7266 17.825 15.663 17.8244C15.5993 17.8238 15.5372 17.8435 15.4854 17.8805" fill="black"/>
<path fill-rule="evenodd" clip-rule="evenodd" d="M4.14563 12.8407C4.07063 12.524 3.9623 11.9474 3.52065 11.6891C2.64187 11.3735 1.67651 11.4003 0.816572 11.7641C0.538674 12.0091 0.320979 12.3149 0.18038 12.6577C0.0397807 13.0005 -0.0199408 13.3711 0.00584991 13.7407C0.0316406 14.1103 0.14225 14.469 0.329094 14.789C0.515938 15.1089 0.773992 15.3815 1.08323 15.5856C1.37586 15.8407 1.73211 16.0119 2.11416 16.0808C2.49621 16.1498 2.88981 16.114 3.25316 15.9773C4.35479 15.3856 4.49645 14.0582 4.14563 12.8407ZM2.79401 15.1756C2.7099 15.2123 2.61912 15.2313 2.52735 15.2313C2.43558 15.2313 2.3448 15.2123 2.26069 15.1756C0.45825 14.6923 0.34992 13.0315 1.20906 12.1641C1.78404 12.4974 2.69401 12.0474 3.1115 12.3307C3.23649 12.4307 3.84397 14.5915 2.79401 15.1756ZM1.56738 10.9716C1.68404 10.2708 1.79237 9.30248 1.32572 9.30248C1.25072 9.30248 1.15073 9.30248 1.10073 9.37748C0.941149 9.87977 0.856903 10.4029 0.850737 10.9299C0.892403 11.5132 1.51738 11.4049 1.56738 10.9716ZM16.0853 10.02C16.1686 10.3874 16.2269 10.6708 16.2769 10.9049C16.4852 11.4716 17.0369 11.3133 16.9369 10.6716C16.8216 10.2394 16.7435 9.79804 16.7036 9.35248C16.6867 9.09864 16.5902 8.8566 16.4277 8.66084C16.2791 8.53547 16.0876 8.47272 15.8936 8.48584C14.9233 8.60813 13.9728 8.85459 13.0653 9.21915C12.4145 9.47748 9.72795 10.8133 9.66962 11.2966C9.66597 11.3625 9.68617 11.4276 9.72653 11.4799C9.7669 11.5321 9.82473 11.5681 9.88945 11.5813C9.95418 11.5944 10.0215 11.5838 10.079 11.5515C10.1366 11.5191 10.1806 11.4671 10.2029 11.4049C11.7543 10.6257 13.3817 10.008 15.0594 9.56164C15.6678 9.39498 15.8094 8.86916 16.0853 10.02ZM16.3694 16.5031C16.3462 17.0924 16.4194 17.6815 16.5861 18.2472C16.6611 18.3472 16.9611 18.4139 17.0944 18.0222C17.2252 17.5639 17.281 17.0881 17.2619 16.6114C17.2265 16.5272 17.1695 16.4539 17.0967 16.3989C17.0239 16.3438 16.9377 16.309 16.8471 16.298C16.7565 16.287 16.6645 16.3002 16.5806 16.3362C16.4967 16.3722 16.4239 16.4298 16.3694 16.5031ZM18.1294 12.9074C18.0624 12.3961 17.8104 11.9271 17.421 11.5891C17.3294 11.5057 17.2627 11.5224 17.0869 11.5141C16.9651 11.508 16.8434 11.5262 16.7288 11.5677C16.6142 11.6092 16.509 11.6731 16.4194 11.7557C16.0528 12.5899 15.0844 12.0391 14.4086 12.5899C14.2374 12.765 14.1092 12.9775 14.034 13.2106C13.9588 13.4436 13.9387 13.691 13.9753 13.9332C14.1381 14.6455 14.5304 15.2847 15.0919 15.7523C15.2633 15.924 15.4779 16.0464 15.7129 16.1065C15.948 16.1666 16.1949 16.1623 16.4277 16.0939C17.6377 15.7356 18.2552 13.9498 18.1294 12.9074ZM15.7519 15.0265C15.4599 14.5564 15.1818 14.0779 14.9178 13.5915C14.9178 13.3082 14.9178 13.1665 15.0928 13.0999C15.5761 12.874 16.6777 12.8907 17.0369 11.9057C17.2107 12.0737 17.3444 12.2787 17.4281 12.5055C17.5118 12.7323 17.5433 12.9751 17.5202 13.2157C17.4474 13.7073 17.2683 14.1771 16.9952 14.5923C16.6952 15.0265 16.1019 15.419 15.7519 15.0265Z" fill="black"/>
</svg>
