<svg width="20" height="20" viewBox="0 0 20 20" fill="none" xmlns="http://www.w3.org/2000/svg">
<path fill-rule="evenodd" clip-rule="evenodd" d="M19.1669 0.469091C18.7227 0.130301 18.172 -0.0342484 17.6169 0.0059477C17.4169 0.0278418 17.2194 0.0817349 17.0344 0.165943C16.7892 0.304922 16.5624 0.474686 16.3594 0.671191C16.3183 0.711365 16.2901 0.763199 16.2786 0.819868C16.2672 0.876536 16.273 0.935382 16.2953 0.988655C16.3103 1.02458 16.3317 1.05602 16.3594 1.08297C16.3851 1.11049 16.4161 1.13242 16.4505 1.14741C16.4849 1.1624 16.522 1.17013 16.5594 1.17013C16.5969 1.17013 16.6339 1.1624 16.6683 1.14741C16.7027 1.13242 16.7337 1.11049 16.7594 1.08297C16.8972 0.955533 17.0444 0.840449 17.2011 0.737715C17.35 0.655005 17.5149 0.606149 17.6844 0.594561C18.0739 0.593793 18.4512 0.730842 18.7511 0.981918C18.9029 1.07896 19.0307 1.20989 19.1246 1.36463C19.2185 1.51937 19.276 1.6938 19.2928 1.87452C19.2953 2.16672 19.2294 2.45556 19.1011 2.7166C18.9661 2.98354 18.7953 3.23027 18.5928 3.44921L17.5836 4.5936C17.3336 4.32413 17.0753 4.05467 16.8003 3.80204C16.6669 3.67573 16.5253 3.56626 16.3919 3.44837L16.1169 3.26311L15.4169 2.85049L15.2836 2.74944L15.5086 2.42103L16.0753 1.70611C16.0948 1.67833 16.1085 1.64685 16.1157 1.61357C16.1228 1.58029 16.1233 1.54588 16.1169 1.51243C16.1169 1.38612 15.9919 1.19244 15.7419 1.34401C15.5003 1.15875 15.2919 0.939814 15.0586 0.754557C14.9171 0.646851 14.7636 0.556402 14.6011 0.485091C14.4691 0.429503 14.3275 0.400883 14.1844 0.400883C14.0414 0.400883 13.8998 0.429503 13.7678 0.485091C13.5119 0.612245 13.2761 0.777293 13.0678 0.973497C12.7928 1.22051 12.5344 1.48436 12.2928 1.76505C11.9594 2.19058 11.6514 2.63408 11.3686 3.09554C11.3151 3.15063 11.2852 3.2247 11.2852 3.30185C11.2852 3.37899 11.3151 3.45306 11.3686 3.50816C11.4217 3.56164 11.4936 3.59166 11.5686 3.59166C11.6436 3.59166 11.7155 3.56164 11.7686 3.50816C12.0186 3.24711 12.2769 3.01133 12.5269 2.77555C12.8997 2.41907 13.2914 2.08504 13.7019 1.77347C13.8186 1.67242 13.9603 1.54611 14.1103 1.43664C14.2603 1.32717 14.2436 1.30191 14.3353 1.31875C14.443 1.33559 14.5483 1.36366 14.6511 1.40296C14.8844 1.51243 15.1094 1.65558 15.3428 1.77347L15.0511 2.11873C13.8928 3.49132 11.3519 6.49586 10.3103 7.86002C10.0741 8.1351 9.89045 8.45202 9.76859 8.79473C9.76859 9.03052 9.66025 10.7223 9.67692 11.4128C9.66748 11.497 9.66748 11.5812 9.67692 11.6654C9.54914 11.744 9.42692 11.831 9.31025 11.9264C9.23803 11.9899 9.17164 12.06 9.11109 12.1369C9.05331 12.2116 9.00053 12.2902 8.95275 12.3727C8.49442 13.1298 8.59442 13.214 8.60275 13.214C8.61431 13.2784 8.65016 13.3357 8.70275 13.374C8.75069 13.4189 8.81251 13.4456 8.87775 13.4497C8.87775 13.4497 9.00275 13.5255 9.66109 12.9361C9.73609 12.8771 9.80275 12.8098 9.86109 12.734C9.92442 12.6644 9.97998 12.5886 10.0278 12.5066C10.0916 12.396 10.1472 12.2809 10.1944 12.1614C10.3786 12.1959 10.5678 12.1959 10.7528 12.1614C11.4728 11.993 12.178 11.774 12.8686 11.5045C13.0061 11.4504 13.1269 11.3603 13.2186 11.2435C13.4269 11.0161 13.8353 10.5362 14.3436 9.90544C15.8086 8.08654 18.1503 5.04832 19.0919 3.9452C19.3344 3.66731 19.5369 3.35574 19.6919 3.01891C19.8751 2.67066 19.9803 2.28605 20.0003 1.89221C19.9739 1.60755 19.8855 1.33232 19.7415 1.08626C19.5974 0.840212 19.4012 0.629445 19.1669 0.469091ZM12.7028 10.4444L12.5444 10.6128C11.9344 10.8682 11.3066 11.0675 10.6611 11.2107V8.91178C10.7361 8.91178 10.1444 9.3244 14.9019 3.19659L15.0103 3.30606L15.4603 3.85341C15.6786 4.12119 15.9258 4.3595 16.2019 4.56834C16.5008 4.76875 16.8117 4.94839 17.1344 5.10727C16.4261 5.94935 15.6094 6.90932 14.8594 7.81792C13.9436 8.95473 13.1111 9.99891 12.7028 10.4444Z" fill="black"/>
<path fill-rule="evenodd" clip-rule="evenodd" d="M15.527 14.653L14.9436 13.3057C14.9366 13.269 14.9218 13.2342 14.9003 13.2037C14.8788 13.1732 14.8511 13.1478 14.819 13.1291C14.7869 13.1104 14.7512 13.0989 14.7144 13.0954C14.6775 13.0919 14.6403 13.0964 14.6053 13.1087C14.5527 13.1271 14.5074 13.1623 14.4762 13.2088C14.4449 13.2554 14.4294 13.311 14.432 13.3672C14.4333 13.4048 14.443 13.4416 14.4603 13.475L15.0353 14.9065C15.4853 15.8151 15.8686 16.2783 16.052 16.6488C16.1697 16.8332 16.2116 17.0568 16.1686 17.2719C16.1686 17.314 16.0853 17.3224 16.002 17.373C15.7097 17.5285 15.4042 17.6492 15.0853 17.7351C13.146 18.2494 11.1674 18.5984 9.17029 18.7784C7.19529 19.031 5.20112 19.0984 3.21362 18.9805C2.93234 18.9566 2.65357 18.9087 2.38028 18.8373C2.29983 18.807 2.22182 18.7704 2.14695 18.7279C2.05007 18.5508 1.9638 18.368 1.88862 18.1805C1.80699 18.0057 1.74547 17.8221 1.70528 17.6332C1.30261 15.309 1.04682 12.9613 0.939449 10.6043C0.766892 8.34023 0.766892 6.06609 0.939449 3.802C1.71445 3.61674 2.76445 3.43991 3.93862 3.28833C5.51362 3.08623 7.27112 2.94308 8.93696 2.88414C8.97488 2.88415 9.01242 2.87648 9.04735 2.86157C9.08228 2.84665 9.11389 2.82481 9.14031 2.79732C9.16673 2.76984 9.18743 2.73727 9.20117 2.70156C9.2149 2.66585 9.22141 2.62771 9.22029 2.58941C9.21812 2.51271 9.18644 2.43989 9.13197 2.38643C9.07751 2.33296 9.00456 2.30307 8.92863 2.3031C7.26196 2.3031 5.48779 2.43783 3.88862 2.59783C2.76891 2.70399 1.65622 2.8755 0.556115 3.1115C0.484074 3.13007 0.418933 3.16941 0.368627 3.22473C0.31832 3.28005 0.28502 3.34896 0.272781 3.42307C-0.00806812 5.82279 -0.0722216 8.24337 0.0811142 10.6548C0.172584 13.0601 0.425947 15.4563 0.839448 17.8268C0.889449 18.0329 0.95056 18.235 1.02278 18.4331C1.13556 18.7043 1.26334 18.9681 1.40612 19.2247C1.58761 19.4346 1.81013 19.6043 2.05966 19.7232C2.3092 19.842 2.58037 19.9074 2.85612 19.9152C4.50445 20.0575 6.16279 20.0205 7.80362 19.8057C10.5676 19.5715 13.2942 19.0062 15.9261 18.1216C16.4928 17.8774 16.7595 17.5826 16.8178 17.3553C16.869 17.1133 16.8487 16.8615 16.7595 16.6311C16.5595 16.2185 16.1186 15.7898 15.527 14.653Z" fill="black"/>
<path fill-rule="evenodd" clip-rule="evenodd" d="M8.06202 9.68651C8.0369 9.60585 7.98267 9.5377 7.91011 9.49557C7.83755 9.45345 7.75196 9.44045 7.67035 9.45915C7.60369 9.45915 7.67035 9.39178 7.37869 9.45915C6.73702 9.53494 5.71285 9.71177 4.82952 9.83809C4.56285 9.88019 4.30452 9.91387 4.07118 9.9644C3.53035 10.0654 3.12201 10.1833 2.96368 10.2002C2.91038 10.2105 2.86231 10.2393 2.82773 10.2815C2.79316 10.3238 2.77425 10.3769 2.77425 10.4318C2.77425 10.4866 2.79316 10.5397 2.82773 10.582C2.86231 10.6242 2.91038 10.653 2.96368 10.6633C3.3809 10.7296 3.80035 10.7576 4.22202 10.7475C4.59702 10.7475 5.05535 10.697 5.44702 10.6549C6.10299 10.5916 6.75412 10.4847 7.39619 10.3349C8.00452 10.1328 8.11285 9.87177 8.06285 9.68651M4.54702 6.43777C3.98201 6.56352 3.42646 6.72351 2.88035 6.91775C2.82041 6.9337 2.76882 6.9723 2.73625 7.02559C2.70368 7.07887 2.69262 7.14277 2.70535 7.20406C2.72103 7.26423 2.75961 7.3157 2.81268 7.34725C2.86576 7.37879 2.92902 7.38786 2.98868 7.37248C3.73035 7.25459 4.44702 7.22932 5.19702 7.17038C6.30991 7.07272 7.4207 6.95199 8.52869 6.80828C8.84536 6.76618 9.17869 6.74092 9.51202 6.66513C9.61924 6.66794 9.7248 6.65671 9.82869 6.63145C9.87869 6.63145 9.89536 6.5725 9.94536 6.53882C10.0266 6.52436 10.0991 6.47843 10.1473 6.41081C10.1956 6.34318 10.2158 6.25919 10.2037 6.17672C10.1537 5.78937 9.48702 5.78937 9.42036 5.78937C7.99535 5.89042 6.78702 6.06725 5.66285 6.21883C5.27952 6.30304 4.91368 6.35356 4.54702 6.43777ZM7.34619 13.2308C7.23785 13.2308 7.10452 13.2308 6.95452 13.2729L5.87118 13.4413C5.30452 13.534 4.70452 13.6266 4.24618 13.7445C3.99285 13.8091 3.74313 13.8876 3.49701 13.9803H3.44701C3.40625 13.9679 3.36278 13.9679 3.32201 13.9803C3.32201 13.9803 3.21368 14.3929 3.55535 14.4266C3.69701 14.4266 3.97201 14.4771 4.38868 14.4771C4.94635 14.4591 5.50268 14.4113 6.05535 14.3339C6.46285 14.2834 6.88785 14.2245 7.16285 14.1655C7.28119 14.1459 7.39785 14.1178 7.51285 14.0813C7.65506 14.0208 7.78717 13.9384 7.90452 13.8371C7.98086 13.7959 8.03833 13.7262 8.06477 13.643C8.09121 13.5597 8.08455 13.4692 8.04619 13.3908C7.97119 13.3656 7.93785 13.2477 7.34619 13.2308Z" fill="black"/>
</svg>
