<svg width="20" height="21" viewBox="0 0 20 21" fill="none" xmlns="http://www.w3.org/2000/svg">
<path d="M6.59176 14.5C6.28176 15.182 5.56976 15.486 4.93876 15.816L1.29274 17.723C-0.172262 18.49 0.558741 20.5 2.12975 20.5C5.62176 20.5 8.38377 18.806 11.5398 17.5C12.3348 17.171 12.7198 17.241 13.4998 17.591" stroke="black" stroke-linecap="round" stroke-linejoin="round"/>
<path d="M6.49951 17.591C7.27951 17.241 7.66452 17.171 8.45952 17.5C11.6155 18.806 14.3775 20.5 17.8696 20.5C19.4396 20.5 20.1716 18.49 18.7066 17.723L15.0605 15.816C14.4295 15.486 13.7165 15.182 13.4075 14.5" stroke="black" stroke-linecap="round" stroke-linejoin="round"/>
<path d="M7.5 2.5C7.5 3.03043 7.71071 3.53914 8.08579 3.91422C8.46086 4.28929 8.96957 4.5 9.50001 4.5C10.0304 4.5 10.5392 4.28929 10.9142 3.91422C11.2893 3.53914 11.5 3.03043 11.5 2.5C11.5 1.96957 11.2893 1.46086 10.9142 1.08579C10.5392 0.710714 10.0304 0.5 9.50001 0.5C8.96957 0.5 8.46086 0.710714 8.08579 1.08579C7.71071 1.46086 7.5 1.96957 7.5 2.5Z" stroke="black"/>
<path d="M9.50002 6.5C7.90872 6.5 6.38259 7.13214 5.25737 8.25736C4.13214 9.38258 3.5 10.9087 3.5 12.5C5.0913 12.5 6.61743 11.8679 7.74266 10.7426C8.86788 9.61742 9.50002 8.0913 9.50002 6.5ZM9.50002 6.5C11.0913 6.5 12.6175 7.13214 13.7427 8.25736C14.8679 9.38258 15.5 10.9087 15.5 12.5C13.9087 12.5 12.3826 11.8679 11.2574 10.7426C10.1322 9.61742 9.50002 8.0913 9.50002 6.5Z" stroke="black" stroke-linejoin="round"/>
</svg>
