<svg width="23" height="23" viewBox="0 0 23 23" fill="none" xmlns="http://www.w3.org/2000/svg">
<path d="M11.5 22C8.71523 22 6.04451 20.8938 4.07538 18.9246C2.10625 16.9555 1 14.2848 1 11.5C1 8.71523 2.10625 6.04451 4.07538 4.07538C6.04451 2.10625 8.71523 1 11.5 1M11.5 22C14.2848 22 16.9555 20.8938 18.9246 18.9246C20.8938 16.9555 22 14.2848 22 11.5C22 8.71523 20.8938 6.04451 18.9246 4.07538C16.9555 2.10625 14.2848 1 11.5 1M11.5 22C12.6935 22 13.8381 20.8938 14.682 18.9246C15.5259 16.9555 16 14.2848 16 11.5C16 8.71523 15.5259 6.04451 14.682 4.07538C13.8381 2.10625 12.6935 1 11.5 1M11.5 22C10.3065 22 9.16193 20.8938 8.31802 18.9246C7.47411 16.9555 7 14.2848 7 11.5C7 8.71523 7.47411 6.04451 8.31802 4.07538C9.16193 2.10625 10.3065 1 11.5 1M1.75 15H21.25M1.75 8H21.25" stroke="black" stroke-width="1.5" stroke-linecap="round" stroke-linejoin="round"/>
</svg>
