<svg width="94" height="94" viewBox="0 0 94 94" fill="none" xmlns="http://www.w3.org/2000/svg">
<path d="M9.39583 42.3C10.5939 42.3013 11.7462 42.76 12.6174 43.5824C13.4886 44.4047 14.0128 45.5287 14.0831 46.7246C14.1533 47.9204 13.7641 49.098 12.9952 50.0166C12.2262 50.9352 11.1355 51.5256 9.9458 51.6671L9.39583 51.7H4.69531C3.49725 51.6987 2.3449 51.24 1.47373 50.4176C0.602549 49.5953 0.0782973 48.4713 0.00808506 47.2754C-0.0621272 46.0796 0.327 44.902 1.09596 43.9834C1.86492 43.0648 2.95567 42.4744 4.14535 42.3329L4.69531 42.3H9.39583ZM47 0C48.1513 0.00015186 49.2625 0.422794 50.1229 1.18776C50.9833 1.95273 51.5329 3.00682 51.6676 4.1501L51.7005 4.7V9.4C51.6992 10.5979 51.2404 11.7502 50.418 12.6212C49.5955 13.4923 48.4715 14.0165 47.2755 14.0867C46.0795 14.1569 44.9018 13.7678 43.9831 12.999C43.0643 12.2301 42.4739 11.1395 42.3324 9.9499L42.2995 9.4V4.7C42.2995 3.45348 42.7947 2.25802 43.6762 1.3766C44.5578 0.495177 45.7533 0 47 0ZM89.3047 42.3C90.5028 42.3013 91.6551 42.76 92.5263 43.5824C93.3975 44.4047 93.9217 45.5287 93.9919 46.7246C94.0621 47.9204 93.673 49.098 92.904 50.0166C92.1351 50.9352 91.0443 51.5256 89.8547 51.6671L89.3047 51.7H84.6042C83.4061 51.6987 82.2538 51.24 81.3826 50.4176C80.5114 49.5953 79.9872 48.4713 79.9169 47.2754C79.8467 46.0796 80.2359 44.902 81.0048 43.9834C81.7738 43.0648 82.8645 42.4744 84.0542 42.3329L84.6042 42.3H89.3047ZM13.5934 13.5971C14.4028 12.7879 15.4797 12.3017 16.622 12.2299C17.7644 12.1581 18.8937 12.5055 19.7981 13.207L20.2399 13.5971L23.5303 16.8871C24.3733 17.7329 24.8628 18.8678 24.8992 20.0614C24.9357 21.255 24.5164 22.4177 23.7266 23.3133C22.9367 24.209 21.8355 24.7704 20.6467 24.8837C19.4578 24.9969 18.2704 24.6534 17.3256 23.923L16.8838 23.5329L13.5934 20.2429C12.7122 19.3615 12.2172 18.1663 12.2172 16.92C12.2172 15.6737 12.7122 14.4785 13.5934 13.5971ZM73.7601 13.5971C74.606 12.7542 75.741 12.2648 76.9347 12.2283C78.1284 12.1919 79.2912 12.6111 80.187 13.4009C81.0827 14.1906 81.6443 15.2917 81.7575 16.4804C81.8708 17.6692 81.5273 18.8564 80.7967 19.8011L80.4066 20.2429L77.1162 23.5329C76.2703 24.3758 75.1353 24.8652 73.9416 24.9017C72.7479 24.9381 71.5851 24.5189 70.6893 23.7291C69.7936 22.9394 69.232 21.8383 69.1188 20.6496C69.0055 19.4608 69.349 18.2736 70.0796 17.3289L70.4697 16.8871L73.7601 13.5971ZM56.401 75.2C57.6477 75.2 58.8433 75.6952 59.7248 76.5766C60.6063 77.458 61.1016 78.6535 61.1016 79.9C61.1016 83.6395 59.6159 87.2259 56.9713 89.8702C54.3268 92.5145 50.74 94 47 94C43.26 94 39.6732 92.5145 37.0287 89.8702C34.3841 87.2259 32.8984 83.6395 32.8984 79.9C32.8986 78.7488 33.3213 77.6377 34.0863 76.7775C34.8514 75.9172 35.9056 75.3676 37.049 75.2329L37.599 75.2H56.401ZM47 18.8C52.9193 18.8 58.6886 20.6623 63.4907 24.123C68.2927 27.5837 71.884 32.4674 73.7558 38.0824C75.6277 43.6973 75.6852 49.7589 73.9203 55.4083C72.1553 61.0578 68.6574 66.0088 63.9219 69.56C63.274 70.0466 62.5114 70.3574 61.7079 70.4624L61.1016 70.5H32.8984C31.8814 70.5 30.8918 70.1702 30.0781 69.56C25.3427 66.0088 21.8447 61.0578 20.0797 55.4083C18.3148 49.7589 18.3723 43.6973 20.2442 38.0824C22.116 32.4674 25.7073 27.5837 30.5093 24.123C35.3114 20.6623 41.0807 18.8 47 18.8Z" fill="white"/>
</svg>
